<?xml version="1.0" standalone="no"?>
<!DOCTYPE svg PUBLIC "-//W3C//DTD SVG 20010904//EN"
 "http://www.w3.org/TR/2001/REC-SVG-20010904/DTD/svg10.dtd">
<svg version="1.0" xmlns="http://www.w3.org/2000/svg"
 width="399.000000pt" height="399.000000pt" viewBox="0 0 399.000000 399.000000"
 preserveAspectRatio="xMidYMid meet">
<metadata>
Created by potrace 1.11, written by Peter Selinger 2001-2013
</metadata>
<g transform="translate(0.000000,399.000000) scale(0.100000,-0.100000)"
fill="#000000" stroke="none">
<path d="M1990 3018 c-76 -39 -84 -60 -88 -212 l-4 -133 -56 -13 c-267 -58
-525 -320 -583 -590 l-11 -50 -126 0 c-151 0 -181 -12 -214 -86 -23 -52 -19
-90 12 -142 33 -54 86 -72 215 -72 l111 0 27 -87 c116 -371 493 -614 874 -564
190 25 344 101 478 235 87 87 142 169 181 269 99 250 72 516 -76 746 -106 165
-295 302 -473 341 l-56 13 -3 133 c-3 115 -6 136 -24 161 -21 29 -96 73 -124
73 -9 0 -36 -10 -60 -22z m184 -644 c258 -66 424 -314 386 -573 -38 -253 -258
-441 -515 -441 -309 0 -557 292 -505 596 51 297 346 492 634 418z"/>
<path d="M1915 2161 c-198 -95 -248 -338 -102 -497 53 -59 107 -89 185 -104
175 -33 350 103 369 287 15 140 -91 295 -227 333 -71 20 -160 12 -225 -19z
m196 -220 c64 -64 22 -161 -69 -161 -35 0 -78 37 -88 74 -9 35 13 84 45 101
42 23 79 18 112 -14z"/>
<path d="M1202 2750 c-104 -64 -94 -202 20 -258 41 -21 51 -22 89 -12 53 15
94 54 110 109 11 37 10 47 -7 89 -36 86 -134 119 -212 72z"/>
</g>
</svg>
